<?xml version="1.0" encoding="UTF-8"?>
<svg xmlns="http://www.w3.org/2000/svg" xmlns:xlink="http://www.w3.org/1999/xlink" width="860pt" height="520pt" viewBox="0 0 860 520" version="1.1">
<defs>
<g>
<symbol overflow="visible" id="glyph0-0">
<g>
</g>
</symbol>
<symbol overflow="visible" id="glyph0-1">
<path style="stroke:none;" d="M 11.265625 -12.292969 L 11.265625 -13.851562 L 0.398438 -13.851562 L 0.398438 -12.292969 L 4.960938 -12.292969 L 4.960938 0 L 6.726562 0 L 6.726562 -12.292969 Z M 11.265625 -12.292969 "/>
</symbol>
<symbol overflow="visible" id="glyph0-2">
<path style="stroke:none;" d="M 9.746094 -4.523438 C 9.746094 -5.964844 9.632812 -6.878906 9.347656 -7.617188 C 8.703125 -9.253906 7.183594 -10.242188 5.320312 -10.242188 C 2.546875 -10.242188 0.761719 -8.1875 0.761719 -4.921875 C 0.761719 -1.652344 2.488281 0.285156 5.28125 0.285156 C 7.5625 0.285156 9.140625 -1.007812 9.539062 -3.019531 L 7.941406 -3.019531 C 7.503906 -1.710938 6.613281 -1.179688 5.339844 -1.179688 C 3.6875 -1.179688 2.449219 -2.242188 2.414062 -4.523438 Z M 8.054688 -5.929688 C 8.054688 -5.929688 8.054688 -5.851562 8.035156 -5.8125 L 2.449219 -5.8125 C 2.585938 -7.582031 3.703125 -8.777344 5.300781 -8.777344 C 6.859375 -8.777344 8.054688 -7.484375 8.054688 -5.929688 Z M 8.054688 -5.929688 "/>
</symbol>
<symbol overflow="visible" id="glyph0-3">
<path style="stroke:none;" d="M 10.164062 -0.0390625 L 10.164062 -1.234375 C 9.992188 -1.195312 9.917969 -1.195312 9.824219 -1.195312 C 9.273438 -1.195312 8.96875 -1.480469 8.96875 -1.976562 L 8.96875 -7.523438 C 8.96875 -9.289062 7.675781 -10.242188 5.226562 -10.242188 C 2.8125 -10.242188 1.328125 -9.308594 1.234375 -7.011719 L 2.832031 -7.011719 C 2.964844 -8.226562 3.6875 -8.777344 5.167969 -8.777344 C 6.59375 -8.777344 7.390625 -8.246094 7.390625 -7.296875 L 7.390625 -6.878906 C 7.390625 -6.214844 6.992188 -5.929688 5.738281 -5.777344 C 3.496094 -5.492188 3.152344 -5.414062 2.546875 -5.167969 C 1.386719 -4.691406 0.796875 -3.800781 0.796875 -2.585938 C 0.796875 -0.777344 2.050781 0.285156 4.066406 0.285156 C 5.339844 0.285156 6.574219 -0.246094 7.449219 -1.179688 C 7.617188 -0.417969 8.304688 0.132812 9.082031 0.132812 C 9.40625 0.132812 9.652344 0.09375 10.164062 -0.0390625 Z M 7.390625 -3.4375 C 7.390625 -2.015625 5.945312 -1.101562 4.40625 -1.101562 C 3.171875 -1.101562 2.449219 -1.539062 2.449219 -2.621094 C 2.449219 -3.667969 3.152344 -4.121094 4.84375 -4.371094 C 6.515625 -4.597656 6.859375 -4.675781 7.390625 -4.921875 Z M 7.390625 -3.4375 "/>
</symbol>
<symbol overflow="visible" id="glyph0-4">
<path style="stroke:none;" d="M 9.0625 -3.421875 L 7.46875 -3.421875 C 7.199219 -1.824219 6.382812 -1.179688 5.035156 -1.179688 C 3.285156 -1.179688 2.242188 -2.527344 2.242188 -4.882812 C 2.242188 -7.371094 3.269531 -8.777344 4.996094 -8.777344 C 6.328125 -8.777344 7.164062 -8 7.351562 -6.613281 L 8.949219 -6.613281 C 8.757812 -9.042969 7.238281 -10.242188 5.015625 -10.242188 C 2.335938 -10.242188 0.589844 -8.1875 0.589844 -4.882812 C 0.589844 -1.671875 2.300781 0.285156 4.996094 0.285156 C 7.371094 0.285156 8.871094 -1.140625 9.0625 -3.421875 Z M 9.0625 -3.421875 "/>
</symbol>
<symbol overflow="visible" id="glyph0-5">
<path style="stroke:none;" d="M 9.234375 0 L 9.234375 -7.523438 C 9.234375 -9.195312 8.035156 -10.242188 6.097656 -10.242188 C 4.691406 -10.242188 3.839844 -9.804688 2.90625 -8.589844 L 2.90625 -13.851562 L 1.328125 -13.851562 L 1.328125 0 L 2.90625 0 L 2.90625 -5.492188 C 2.90625 -7.523438 3.972656 -8.855469 5.605469 -8.855469 C 6.726562 -8.855469 7.65625 -8.207031 7.65625 -6.898438 L 7.65625 0 Z M 9.234375 0 "/>
</symbol>
<symbol overflow="visible" id="glyph0-6">
<path style="stroke:none;" d="M 6.097656 -8.570312 L 6.097656 -10.183594 C 5.832031 -10.222656 5.699219 -10.242188 5.492188 -10.242188 C 4.464844 -10.242188 3.6875 -9.632812 2.773438 -8.152344 L 2.773438 -9.957031 L 1.328125 -9.957031 L 1.328125 0 L 2.90625 0 L 2.90625 -5.167969 C 2.90625 -7.410156 3.648438 -8.53125 6.097656 -8.570312 Z M 6.097656 -8.570312 "/>
</symbol>
<symbol overflow="visible" id="glyph1-0">
<g>
</g>
</symbol>
<symbol overflow="visible" id="glyph1-1">
<path style="stroke:none;" d="M 13.707031 -4.574219 C 13.707031 -6.511719 12.824219 -7.679688 10.78125 -8.46875 C 12.230469 -9.152344 13.003906 -10.339844 13.003906 -11.96875 C 13.003906 -14.300781 11.285156 -16.039062 8.25 -16.039062 L 1.738281 -16.039062 L 1.738281 0 L 8.976562 0 C 11.859375 0 13.707031 -1.9375 13.707031 -4.574219 Z M 10.957031 -11.683594 C 10.957031 -10.054688 10.011719 -9.128906 7.742188 -9.128906 L 3.785156 -9.128906 L 3.785156 -14.234375 L 7.742188 -14.234375 C 10.011719 -14.234375 10.957031 -13.308594 10.957031 -11.683594 Z M 11.660156 -4.554688 C 11.660156 -3.015625 10.714844 -1.804688 8.777344 -1.804688 L 3.785156 -1.804688 L 3.785156 -7.324219 L 8.777344 -7.324219 C 10.714844 -7.324219 11.660156 -6.117188 11.660156 -4.554688 Z M 11.660156 -4.554688 "/>
</symbol>
<symbol overflow="visible" id="glyph1-2">
<path style="stroke:none;" d="M 11.769531 -0.0429688 L 11.769531 -1.429688 C 11.570312 -1.386719 11.484375 -1.386719 11.375 -1.386719 C 10.734375 -1.386719 10.382812 -1.714844 10.382812 -2.289062 L 10.382812 -8.710938 C 10.382812 -10.757812 8.886719 -11.859375 6.050781 -11.859375 C 3.257812 -11.859375 1.539062 -10.78125 1.429688 -8.117188 L 3.277344 -8.117188 C 3.433594 -9.527344 4.269531 -10.164062 5.984375 -10.164062 C 7.632812 -10.164062 8.558594 -9.546875 8.558594 -8.449219 L 8.558594 -7.964844 C 8.558594 -7.195312 8.097656 -6.863281 6.644531 -6.6875 C 4.046875 -6.359375 3.652344 -6.269531 2.949219 -5.984375 C 1.605469 -5.433594 0.925781 -4.398438 0.925781 -2.992188 C 0.925781 -0.902344 2.375 0.328125 4.707031 0.328125 C 6.183594 0.328125 7.613281 -0.285156 8.625 -1.363281 C 8.820312 -0.484375 9.613281 0.152344 10.515625 0.152344 C 10.890625 0.152344 11.175781 0.109375 11.769531 -0.0429688 Z M 8.558594 -3.980469 C 8.558594 -2.332031 6.886719 -1.277344 5.105469 -1.277344 C 3.675781 -1.277344 2.839844 -1.78125 2.839844 -3.035156 C 2.839844 -4.246094 3.652344 -4.773438 5.609375 -5.058594 C 7.546875 -5.324219 7.941406 -5.410156 8.558594 -5.699219 Z M 8.558594 -3.980469 "/>
</symbol>
<symbol overflow="visible" id="glyph1-3">
<path style="stroke:none;" d="M 10.097656 -3.234375 C 10.097656 -4.949219 9.128906 -5.808594 6.84375 -6.359375 L 5.082031 -6.777344 C 3.585938 -7.128906 2.949219 -7.613281 2.949219 -8.425781 C 2.949219 -9.480469 3.894531 -10.164062 5.390625 -10.164062 C 6.863281 -10.164062 7.65625 -9.527344 7.699219 -8.316406 L 9.636719 -8.316406 C 9.613281 -10.582031 8.117188 -11.859375 5.457031 -11.859375 C 2.773438 -11.859375 1.035156 -10.472656 1.035156 -8.339844 C 1.035156 -6.535156 1.957031 -5.675781 4.6875 -5.015625 L 6.402344 -4.597656 C 7.679688 -4.289062 8.183594 -3.914062 8.183594 -3.078125 C 8.183594 -2.003906 7.105469 -1.363281 5.5 -1.363281 C 3.851562 -1.363281 2.925781 -1.761719 2.683594 -3.519531 L 0.746094 -3.519531 C 0.835938 -0.859375 2.332031 0.328125 5.347656 0.328125 C 8.25 0.328125 10.097656 -1.011719 10.097656 -3.234375 Z M 10.097656 -3.234375 "/>
</symbol>
<symbol overflow="visible" id="glyph1-4">
<path style="stroke:none;" d="M 11.285156 -5.234375 C 11.285156 -6.90625 11.152344 -7.964844 10.824219 -8.820312 C 10.074219 -10.714844 8.316406 -11.859375 6.160156 -11.859375 C 2.949219 -11.859375 0.878906 -9.480469 0.878906 -5.699219 C 0.878906 -1.914062 2.882812 0.328125 6.117188 0.328125 C 8.757812 0.328125 10.582031 -1.164062 11.042969 -3.496094 L 9.195312 -3.496094 C 8.691406 -1.980469 7.65625 -1.363281 6.183594 -1.363281 C 4.269531 -1.363281 2.839844 -2.597656 2.792969 -5.234375 Z M 9.328125 -6.863281 C 9.328125 -6.863281 9.328125 -6.777344 9.304688 -6.730469 L 2.839844 -6.730469 C 2.992188 -8.777344 4.289062 -10.164062 6.136719 -10.164062 C 7.941406 -10.164062 9.328125 -8.667969 9.328125 -6.863281 Z M 9.328125 -6.863281 "/>
</symbol>
<symbol overflow="visible" id="glyph1-5">
<path style="stroke:none;" d="M 3.320312 0 L 3.320312 -16.039062 L 1.496094 -16.039062 L 1.496094 0 Z M 3.320312 0 "/>
</symbol>
<symbol overflow="visible" id="glyph1-6">
<path style="stroke:none;" d="M 3.367188 0 L 3.367188 -11.527344 L 1.539062 -11.527344 L 1.539062 0 Z M 3.609375 -13.265625 L 3.609375 -15.554688 L 1.320312 -15.554688 L 1.320312 -13.265625 Z M 3.609375 -13.265625 "/>
</symbol>
<symbol overflow="visible" id="glyph1-7">
<path style="stroke:none;" d="M 10.714844 0 L 10.714844 -8.710938 C 10.714844 -10.625 9.285156 -11.859375 7.0625 -11.859375 C 5.347656 -11.859375 4.246094 -11.199219 3.234375 -9.59375 L 3.234375 -11.527344 L 1.539062 -11.527344 L 1.539062 0 L 3.367188 0 L 3.367188 -6.359375 C 3.367188 -8.710938 4.640625 -10.253906 6.511719 -10.253906 C 7.964844 -10.253906 8.886719 -9.371094 8.886719 -7.984375 L 8.886719 0 Z M 10.714844 0 "/>
</symbol>
<symbol overflow="visible" id="glyph1-8">
<path style="stroke:none;" d="M 14.476562 0 L 7.875 -9.503906 L 14.410156 -16.039062 L 11.769531 -16.039062 L 3.785156 -7.921875 L 3.785156 -16.039062 L 1.738281 -16.039062 L 1.738281 0 L 3.785156 0 L 3.785156 -5.609375 L 6.402344 -8.226562 L 12.054688 0 Z M 14.476562 0 "/>
</symbol>
<symbol overflow="visible" id="glyph1-9">
<path style="stroke:none;" d="M 14.675781 -8.03125 C 14.675781 -13.003906 12.210938 -16.039062 8.140625 -16.039062 L 1.957031 -16.039062 L 1.957031 0 L 8.140625 0 C 12.1875 0 14.675781 -3.035156 14.675781 -8.03125 Z M 12.628906 -8.007812 C 12.628906 -3.960938 10.957031 -1.804688 7.789062 -1.804688 L 4.003906 -1.804688 L 4.003906 -14.234375 L 7.789062 -14.234375 C 10.957031 -14.234375 12.628906 -12.101562 12.628906 -8.007812 Z M 12.628906 -8.007812 "/>
</symbol>
<symbol overflow="visible" id="glyph1-10">
<path style="stroke:none;" d="M 14.167969 0 L 14.167969 -16.039062 L 12.121094 -16.039062 L 12.121094 -9.109375 L 3.871094 -9.109375 L 3.871094 -16.039062 L 1.824219 -16.039062 L 1.824219 0 L 3.871094 0 L 3.871094 -7.304688 L 12.121094 -7.304688 L 12.121094 0 Z M 14.167969 0 "/>
</symbol>
<symbol overflow="visible" id="glyph1-11">
<path style="stroke:none;" d="M 5.589844 0 L 5.589844 -1.539062 C 5.347656 -1.472656 5.058594 -1.453125 4.707031 -1.453125 C 3.914062 -1.453125 3.695312 -1.671875 3.695312 -2.484375 L 3.695312 -10.03125 L 5.589844 -10.03125 L 5.589844 -11.527344 L 3.695312 -11.527344 L 3.695312 -14.695312 L 1.871094 -14.695312 L 1.871094 -11.527344 L 0.308594 -11.527344 L 0.308594 -10.03125 L 1.871094 -10.03125 L 1.871094 -1.671875 C 1.871094 -0.507812 2.660156 0.152344 4.09375 0.152344 C 4.53125 0.152344 4.972656 0.109375 5.589844 0 Z M 5.589844 0 "/>
</symbol>
<symbol overflow="visible" id="glyph1-12">
<path style="stroke:none;" d="M 4.222656 0.351562 L 4.222656 -2.289062 L 1.914062 -2.289062 L 1.914062 0 L 3.234375 0 L 3.234375 0.394531 C 3.234375 1.914062 2.949219 2.355469 1.914062 2.398438 L 1.914062 3.234375 C 3.453125 3.234375 4.222656 2.242188 4.222656 0.351562 Z M 4.222656 0.351562 "/>
</symbol>
<symbol overflow="visible" id="glyph1-13">
<path style="stroke:none;" d="M 11.351562 -6.753906 L 11.351562 -8.25 L 1.496094 -8.25 L 1.496094 -6.753906 Z M 11.351562 -2.75 L 11.351562 -4.246094 L 1.496094 -4.246094 L 1.496094 -2.75 Z M 11.351562 -2.75 "/>
</symbol>
<symbol overflow="visible" id="glyph1-14">
<path style="stroke:none;" d="M 11.152344 -7.503906 C 11.152344 -12.914062 9.4375 -15.597656 6.050781 -15.597656 C 2.683594 -15.597656 0.945312 -12.871094 0.945312 -7.632812 C 0.945312 -2.375 2.707031 0.328125 6.050781 0.328125 C 9.351562 0.328125 11.152344 -2.375 11.152344 -7.503906 Z M 9.175781 -7.679688 C 9.175781 -3.257812 8.160156 -1.277344 6.007812 -1.277344 C 3.960938 -1.277344 2.925781 -3.34375 2.925781 -7.613281 C 2.925781 -11.878906 3.960938 -13.882812 6.050781 -13.882812 C 8.140625 -13.882812 9.175781 -11.859375 9.175781 -7.679688 Z M 9.175781 -7.679688 "/>
</symbol>
<symbol overflow="visible" id="glyph1-15">
<path style="stroke:none;" d="M 4.203125 0 L 4.203125 -2.289062 L 1.914062 -2.289062 L 1.914062 0 Z M 4.203125 0 "/>
</symbol>
<symbol overflow="visible" id="glyph1-16">
<path style="stroke:none;" d="M 11.242188 -11.023438 C 11.242188 -13.660156 9.195312 -15.597656 6.246094 -15.597656 C 3.058594 -15.597656 1.210938 -13.96875 1.101562 -10.1875 L 3.035156 -10.1875 C 3.191406 -12.804688 4.269531 -13.902344 6.183594 -13.902344 C 7.941406 -13.902344 9.261719 -12.648438 9.261719 -10.976562 C 9.261719 -9.746094 8.535156 -8.691406 7.148438 -7.898438 L 5.125 -6.753906 C 1.871094 -4.90625 0.925781 -3.433594 0.746094 0 L 11.132812 0 L 11.132812 -1.914062 L 2.925781 -1.914062 C 3.125 -3.191406 3.828125 -4.003906 5.742188 -5.125 L 7.941406 -6.3125 C 10.121094 -7.480469 11.242188 -9.109375 11.242188 -11.023438 Z M 11.242188 -11.023438 "/>
</symbol>
<symbol overflow="visible" id="glyph1-17">
<path style="stroke:none;" d="M 11.285156 -5.171875 C 11.285156 -8.25 9.238281 -10.273438 6.246094 -10.273438 C 5.148438 -10.273438 4.269531 -9.988281 3.367188 -9.328125 L 3.980469 -13.355469 L 10.472656 -13.355469 L 10.472656 -15.269531 L 2.421875 -15.269531 L 1.253906 -7.105469 L 3.035156 -7.105469 C 3.9375 -8.183594 4.6875 -8.558594 5.894531 -8.558594 C 7.984375 -8.558594 9.304688 -7.214844 9.304688 -4.90625 C 9.304688 -2.660156 8.007812 -1.386719 5.894531 -1.386719 C 4.203125 -1.386719 3.167969 -2.242188 2.707031 -4.003906 L 0.769531 -4.003906 C 1.40625 -0.902344 3.167969 0.328125 5.941406 0.328125 C 9.085938 0.328125 11.285156 -1.871094 11.285156 -5.171875 Z M 11.285156 -5.171875 "/>
</symbol>
<symbol overflow="visible" id="glyph1-18">
<path style="stroke:none;" d="M 14.9375 0 L 14.9375 -0.507812 C 14.167969 -1.035156 13.992188 -1.605469 13.96875 -3.738281 C 13.925781 -6.378906 13.53125 -7.171875 11.792969 -7.921875 C 13.597656 -8.800781 14.320312 -9.921875 14.320312 -11.746094 C 14.320312 -14.519531 12.585938 -16.039062 9.4375 -16.039062 L 2.046875 -16.039062 L 2.046875 0 L 4.09375 0 L 4.09375 -6.90625 L 9.371094 -6.90625 C 11.175781 -6.90625 12.035156 -6.027344 12.011719 -4.046875 L 11.988281 -2.617188 C 11.96875 -1.628906 12.164062 -0.660156 12.453125 0 Z M 12.1875 -11.460938 C 12.1875 -9.570312 11.21875 -8.710938 9.042969 -8.710938 L 4.09375 -8.710938 L 4.09375 -14.234375 L 9.042969 -14.234375 C 11.328125 -14.234375 12.1875 -13.265625 12.1875 -11.460938 Z M 12.1875 -11.460938 "/>
</symbol>
<symbol overflow="visible" id="glyph1-19">
<path style="stroke:none;" d="M 11.21875 -5.675781 C 11.21875 -9.65625 9.304688 -11.859375 5.984375 -11.859375 C 2.75 -11.859375 0.792969 -9.636719 0.792969 -5.765625 C 0.792969 -1.890625 2.726562 0.328125 6.007812 0.328125 C 9.238281 0.328125 11.21875 -1.890625 11.21875 -5.675781 Z M 9.304688 -5.699219 C 9.304688 -2.992188 8.03125 -1.363281 6.007812 -1.363281 C 3.960938 -1.363281 2.707031 -2.96875 2.707031 -5.765625 C 2.707031 -8.535156 3.960938 -10.164062 6.007812 -10.164062 C 8.074219 -10.164062 9.304688 -8.558594 9.304688 -5.699219 Z M 9.304688 -5.699219 "/>
</symbol>
<symbol overflow="visible" id="glyph1-20">
<path style="stroke:none;" d="M 7.632812 0 L 7.632812 -15.597656 L 6.359375 -15.597656 C 5.675781 -13.199219 5.234375 -12.871094 2.242188 -12.496094 L 2.242188 -11.109375 L 5.699219 -11.109375 L 5.699219 0 Z M 7.632812 0 "/>
</symbol>
<symbol overflow="visible" id="glyph1-21">
<path style="stroke:none;" d="M 11.132812 -4.53125 C 11.132812 -6.425781 10.363281 -7.523438 8.492188 -8.160156 C 9.945312 -8.734375 10.671875 -9.746094 10.671875 -11.308594 C 10.671875 -13.992188 8.886719 -15.597656 5.917969 -15.597656 C 2.773438 -15.597656 1.101562 -13.882812 1.035156 -10.558594 L 2.96875 -10.558594 C 3.015625 -12.871094 3.960938 -13.902344 5.941406 -13.902344 C 7.65625 -13.902344 8.691406 -12.890625 8.691406 -11.242188 C 8.691406 -9.570312 7.964844 -8.886719 4.863281 -8.886719 L 4.863281 -7.261719 L 5.917969 -7.261719 C 8.050781 -7.261719 9.152344 -6.246094 9.152344 -4.511719 C 9.152344 -2.550781 7.941406 -1.386719 5.917969 -1.386719 C 3.804688 -1.386719 2.773438 -2.441406 2.640625 -4.707031 L 0.703125 -4.707031 C 0.945312 -1.230469 2.660156 0.328125 5.851562 0.328125 C 9.0625 0.328125 11.132812 -1.585938 11.132812 -4.53125 Z M 11.132812 -4.53125 "/>
</symbol>
<symbol overflow="visible" id="glyph1-22">
<path style="stroke:none;" d="M 11.285156 -4.398438 C 11.285156 -6.136719 10.40625 -7.347656 8.601562 -8.207031 C 10.207031 -9.175781 10.734375 -9.964844 10.734375 -11.441406 C 10.734375 -13.882812 8.820312 -15.597656 6.050781 -15.597656 C 3.300781 -15.597656 1.363281 -13.882812 1.363281 -11.441406 C 1.363281 -9.988281 1.890625 -9.195312 3.476562 -8.207031 C 1.695312 -7.347656 0.8125 -6.136719 0.8125 -4.421875 C 0.8125 -1.5625 2.96875 0.328125 6.050781 0.328125 C 9.128906 0.328125 11.285156 -1.5625 11.285156 -4.398438 Z M 8.757812 -11.394531 C 8.757812 -9.945312 7.679688 -8.976562 6.050781 -8.976562 C 4.421875 -8.976562 3.34375 -9.945312 3.34375 -11.417969 C 3.34375 -12.914062 4.421875 -13.882812 6.050781 -13.882812 C 7.699219 -13.882812 8.757812 -12.914062 8.757812 -11.394531 Z M 9.304688 -4.378906 C 9.304688 -2.53125 7.984375 -1.386719 6.007812 -1.386719 C 4.113281 -1.386719 2.792969 -2.550781 2.792969 -4.378906 C 2.792969 -6.203125 4.113281 -7.347656 6.050781 -7.347656 C 7.984375 -7.347656 9.304688 -6.203125 9.304688 -4.378906 Z M 9.304688 -4.378906 "/>
</symbol>
<symbol overflow="visible" id="glyph2-0">
<path style="stroke:none;" d="M 1.5625 0 L 1.5625 -19.996094 L 10.9375 -19.996094 L 10.9375 0 Z M 3.125 -1.5625 L 9.375 -1.5625 L 9.375 -18.433594 L 3.125 -18.433594 Z M 3.125 -1.5625 "/>
</symbol>
<symbol overflow="visible" id="glyph2-1">
<path style="stroke:none;" d="M 12.621094 -14 C 12.621094 -12.851562 12.257812 -11.859375 11.523438 -11.023438 C 10.789062 -10.183594 9.851562 -9.601562 8.703125 -9.277344 L 8.703125 -9.179688 C 9.574219 -8.917969 10.265625 -8.503906 10.777344 -7.933594 C 11.289062 -7.363281 11.546875 -6.535156 11.546875 -5.445312 C 11.546875 -3.859375 10.953125 -2.476562 9.757812 -1.304688 C 8.566406 -0.132812 7.070312 0.453125 5.273438 0.453125 C 4.628906 0.453125 3.988281 0.296875 3.351562 -0.0117188 C 2.710938 -0.320312 2.238281 -0.792969 1.929688 -1.429688 L 1.90625 -1.429688 C 1.464844 0.199219 1.0625 1.65625 0.695312 2.949219 C 0.328125 4.238281 0.03125 4.957031 -0.195312 5.101562 L -2.429688 5.101562 C -2.226562 4.875 -1.949219 4.417969 -1.605469 3.734375 C -1.257812 3.050781 -0.992188 2.363281 -0.804688 1.671875 L 3.027344 -12.523438 C 3.367188 -13.792969 4.105469 -14.859375 5.230469 -15.714844 C 6.359375 -16.574219 7.597656 -17.003906 8.949219 -17.003906 C 9.980469 -17.003906 10.851562 -16.757812 11.558594 -16.265625 C 12.265625 -15.773438 12.621094 -15.019531 12.621094 -14 Z M 10.644531 -14.050781 C 10.644531 -14.667969 10.5 -15.195312 10.210938 -15.625 C 9.921875 -16.054688 9.417969 -16.273438 8.703125 -16.273438 C 7.792969 -16.273438 6.996094 -15.925781 6.316406 -15.234375 C 5.636719 -14.542969 5.148438 -13.632812 4.847656 -12.5 L 2.601562 -4.175781 C 2.558594 -4.019531 2.523438 -3.847656 2.496094 -3.65625 C 2.46875 -3.464844 2.453125 -3.304688 2.453125 -3.171875 C 2.453125 -2.425781 2.703125 -1.832031 3.203125 -1.398438 C 3.703125 -0.960938 4.386719 -0.746094 5.25 -0.746094 C 6.566406 -0.746094 7.59375 -1.257812 8.324219 -2.28125 C 9.058594 -3.308594 9.421875 -4.457031 9.421875 -5.726562 C 9.421875 -6.441406 9.277344 -7.09375 8.984375 -7.683594 C 8.691406 -8.273438 8.238281 -8.570312 7.628906 -8.570312 C 7.34375 -8.570312 7.117188 -8.550781 6.953125 -8.507812 C 6.785156 -8.46875 6.527344 -8.445312 6.175781 -8.445312 C 5.957031 -8.445312 5.792969 -8.5 5.6875 -8.601562 C 5.582031 -8.703125 5.53125 -8.824219 5.53125 -8.972656 C 5.53125 -9.207031 5.636719 -9.445312 5.851562 -9.6875 C 6.070312 -9.925781 6.34375 -10.046875 6.675781 -10.046875 C 6.824219 -10.046875 7.03125 -10.027344 7.300781 -9.984375 C 7.570312 -9.945312 7.800781 -9.925781 7.996094 -9.925781 C 8.851562 -9.925781 9.503906 -10.398438 9.960938 -11.351562 C 10.417969 -12.304688 10.644531 -13.203125 10.644531 -14.050781 Z M 10.644531 -14.050781 "/>
</symbol>
<symbol overflow="visible" id="glyph3-0">
<g>
</g>
</symbol>
<symbol overflow="visible" id="glyph3-1">
<path style="stroke:none;" d="M 4.4375 -3.75 L 4.4375 -4.875 L 0.71875 -4.875 L 0.71875 -3.75 Z M 4.4375 -3.75 "/>
</symbol>
<symbol overflow="visible" id="glyph3-2">
<path style="stroke:none;" d="M 5.421875 0 L 5.421875 -11.074219 L 4.515625 -11.074219 C 4.03125 -9.371094 3.71875 -9.136719 1.59375 -8.871094 L 1.59375 -7.886719 L 4.046875 -7.886719 L 4.046875 0 Z M 5.421875 0 "/>
</symbol>
<symbol overflow="visible" id="glyph3-3">
<path style="stroke:none;" d="M 7.917969 -5.328125 C 7.917969 -9.167969 6.699219 -11.074219 4.296875 -11.074219 C 1.90625 -11.074219 0.671875 -9.136719 0.671875 -5.421875 C 0.671875 -1.6875 1.921875 0.234375 4.296875 0.234375 C 6.636719 0.234375 7.917969 -1.6875 7.917969 -5.328125 Z M 6.511719 -5.453125 C 6.511719 -2.3125 5.796875 -0.90625 4.265625 -0.90625 C 2.8125 -0.90625 2.078125 -2.375 2.078125 -5.40625 C 2.078125 -8.433594 2.8125 -9.855469 4.296875 -9.855469 C 5.78125 -9.855469 6.511719 -8.417969 6.511719 -5.453125 Z M 6.511719 -5.453125 "/>
</symbol>
<symbol overflow="visible" id="glyph3-4">
<path style="stroke:none;" d="M 7.980469 -7.824219 C 7.980469 -9.699219 6.527344 -11.074219 4.4375 -11.074219 C 2.171875 -11.074219 0.859375 -9.917969 0.78125 -7.230469 L 2.15625 -7.230469 C 2.265625 -9.089844 3.03125 -9.871094 4.390625 -9.871094 C 5.640625 -9.871094 6.574219 -8.980469 6.574219 -7.792969 C 6.574219 -6.917969 6.0625 -6.167969 5.078125 -5.609375 L 3.640625 -4.796875 C 1.328125 -3.484375 0.65625 -2.4375 0.53125 0 L 7.902344 0 L 7.902344 -1.359375 L 2.078125 -1.359375 C 2.21875 -2.265625 2.71875 -2.84375 4.078125 -3.640625 L 5.640625 -4.484375 C 7.183594 -5.3125 7.980469 -6.464844 7.980469 -7.824219 Z M 7.980469 -7.824219 "/>
</symbol>
<symbol overflow="visible" id="glyph4-0">
<g>
</g>
</symbol>
<symbol overflow="visible" id="glyph4-1">
<path style="stroke:none;" d="M 0 -19.378906 L -21.871094 -19.378906 L -21.871094 -16.738281 L -3.988281 -16.738281 L -21.871094 -5.308594 L -21.871094 -2.28125 L 0 -2.28125 L 0 -4.921875 L -17.730469 -4.921875 L 0 -16.230469 Z M 0 -19.378906 "/>
</symbol>
<symbol overflow="visible" id="glyph4-2">
<path style="stroke:none;" d="M 0 -15.988281 L -2.460938 -15.988281 L -2.460938 -5.191406 L -21.871094 -5.191406 L -21.871094 -2.398438 L 0 -2.398438 Z M 0 -15.988281 "/>
</symbol>
<symbol overflow="visible" id="glyph4-3">
<path style="stroke:none;" d="M 0 -18.390625 L -2.460938 -18.390625 L -2.460938 -5.488281 L -9.960938 -5.488281 L -9.960938 -17.398438 L -12.421875 -17.398438 L -12.421875 -5.488281 L -19.410156 -5.488281 L -19.410156 -17.851562 L -21.871094 -17.851562 L -21.871094 -2.699219 L 0 -2.699219 Z M 0 -18.390625 "/>
</symbol>
<symbol overflow="visible" id="glyph4-4">
<path style="stroke:none;" d="M -7.980469 -20.308594 L -7.980469 -17.429688 C -3.839844 -16.769531 -1.921875 -15.03125 -1.921875 -11.339844 C -1.921875 -6.988281 -5.25 -4.230469 -10.710938 -4.230469 C -16.320312 -4.230469 -19.949219 -6.871094 -19.949219 -11.101562 C -19.949219 -14.519531 -18.421875 -16.320312 -15.089844 -17.011719 L -15.089844 -19.859375 C -19.890625 -18.988281 -22.410156 -16.230469 -22.410156 -11.429688 C -22.410156 -4.800781 -17.070312 -1.441406 -10.679688 -1.441406 C -4.289062 -1.441406 0.539062 -4.890625 0.539062 -11.308594 C 0.539062 -16.648438 -2.28125 -19.648438 -7.980469 -20.308594 Z M -7.980469 -20.308594 "/>
</symbol>
</g>
<clipPath id="clip1">
  <path d="M 117.839844 399 L 742.078125 399 L 742.078125 402 L 117.839844 402 Z M 117.839844 399 "/>
</clipPath>
<clipPath id="clip2">
  <path d="M 117.839844 403 L 742.078125 403 L 742.078125 406 L 117.839844 406 Z M 117.839844 403 "/>
</clipPath>
</defs>
<g id="surface409">
<rect x="0" y="0" width="860" height="520" style="fill:rgb(100%,100%,100%);fill-opacity:1;stroke:none;"/>
<path style=" stroke:none;fill-rule:evenodd;fill:rgb(0%,46.666667%,73.333333%);fill-opacity:0.12;" d="M 118 407.035156 L 118 395.390625 L 742 395.390625 L 742 407.035156 Z M 118 407.035156 "/>
<g clip-path="url(#clip1)" clip-rule="nonzero">
<path style="fill:none;stroke-width:2.2;stroke-linecap:butt;stroke-linejoin:miter;stroke:rgb(0%,46.666667%,73.333333%);stroke-opacity:1;stroke-dasharray:9,5;stroke-miterlimit:3.25;" d="M 118 400.804688 L 742 400.804688 "/>
</g>
<g style="fill:rgb(0%,46.666667%,73.333333%);fill-opacity:1;">
  <use xlink:href="#glyph0-1" x="659.828" y="394.048264"/>
  <use xlink:href="#glyph0-2" x="669.932833" y="394.048264"/>
  <use xlink:href="#glyph0-3" x="680.797667" y="394.048264"/>
  <use xlink:href="#glyph0-4" x="691.6625" y="394.048264"/>
  <use xlink:href="#glyph0-5" x="701.463333" y="394.048264"/>
  <use xlink:href="#glyph0-2" x="712.328167" y="394.048264"/>
  <use xlink:href="#glyph0-6" x="723.193" y="394.048264"/>
</g>
<path style=" stroke:none;fill-rule:evenodd;fill:rgb(0%,46.666667%,73.333333%);fill-opacity:0.18;" d="M 180.398438 277.207031 L 305.199219 278.828125 L 430 274.058594 L 554.800781 270.621094 L 679.601562 44.964844 L 679.601562 77.132812 L 554.800781 277.222656 L 430 279.070312 L 305.199219 286.890625 L 180.398438 281.070312 Z M 180.398438 277.207031 "/>
<path style="fill:none;stroke-width:2.8;stroke-linecap:square;stroke-linejoin:miter;stroke:rgb(0%,46.666667%,73.333333%);stroke-opacity:1;stroke-miterlimit:3.25;" d="M 180.398438 279.09375 L 305.199219 282.664062 L 430 276.488281 L 554.800781 273.789062 L 679.601562 58 "/>
<path style=" stroke:none;fill-rule:evenodd;fill:rgb(0%,46.666667%,73.333333%);fill-opacity:1;" d="M 184.769531 279.09375 C 184.769531 280.25 184.308594 281.363281 183.488281 282.179688 C 182.667969 283 181.558594 283.460938 180.398438 283.460938 C 179.242188 283.460938 178.128906 283 177.3125 282.179688 C 176.492188 281.363281 176.03125 280.25 176.03125 279.09375 C 176.03125 277.933594 176.492188 276.824219 177.3125 276.003906 C 178.128906 275.183594 179.242188 274.726562 180.398438 274.726562 C 181.558594 274.726562 182.667969 275.183594 183.488281 276.003906 C 184.308594 276.824219 184.769531 277.933594 184.769531 279.09375 Z M 184.769531 279.09375 "/>
<path style=" stroke:none;fill-rule:evenodd;fill:rgb(0%,46.666667%,73.333333%);fill-opacity:1;" d="M 309.566406 282.664062 C 309.566406 283.824219 309.109375 284.933594 308.289062 285.753906 C 307.46875 286.574219 306.359375 287.03125 305.199219 287.03125 C 304.042969 287.03125 302.929688 286.574219 302.113281 285.753906 C 301.292969 284.933594 300.832031 283.824219 300.832031 282.664062 C 300.832031 281.507812 301.292969 280.394531 302.113281 279.574219 C 302.929688 278.757812 304.042969 278.296875 305.199219 278.296875 C 306.359375 278.296875 307.46875 278.757812 308.289062 279.574219 C 309.109375 280.394531 309.566406 281.507812 309.566406 282.664062 Z M 309.566406 282.664062 "/>
<path style=" stroke:none;fill-rule:evenodd;fill:rgb(0%,46.666667%,73.333333%);fill-opacity:1;" d="M 434.367188 276.488281 C 434.367188 277.648438 433.90625 278.757812 433.089844 279.578125 C 432.269531 280.394531 431.160156 280.855469 430 280.855469 C 428.839844 280.855469 427.730469 280.394531 426.910156 279.578125 C 426.09375 278.757812 425.632812 277.648438 425.632812 276.488281 C 425.632812 275.328125 426.09375 274.21875 426.910156 273.398438 C 427.730469 272.582031 428.839844 272.121094 430 272.121094 C 431.160156 272.121094 432.269531 272.582031 433.089844 273.398438 C 433.90625 274.21875 434.367188 275.328125 434.367188 276.488281 Z M 434.367188 276.488281 "/>
<path style=" stroke:none;fill-rule:evenodd;fill:rgb(0%,46.666667%,73.333333%);fill-opacity:1;" d="M 559.167969 273.789062 C 559.167969 274.949219 558.707031 276.058594 557.886719 276.878906 C 557.070312 277.699219 555.957031 278.15625 554.800781 278.15625 C 553.640625 278.15625 552.53125 277.699219 551.710938 276.878906 C 550.890625 276.058594 550.433594 274.949219 550.433594 273.789062 C 550.433594 272.632812 550.890625 271.519531 551.710938 270.699219 C 552.53125 269.882812 553.640625 269.421875 554.800781 269.421875 C 555.957031 269.421875 557.070312 269.882812 557.886719 270.699219 C 558.707031 271.519531 559.167969 272.632812 559.167969 273.789062 Z M 559.167969 273.789062 "/>
<path style=" stroke:none;fill-rule:evenodd;fill:rgb(0%,46.666667%,73.333333%);fill-opacity:1;" d="M 683.96875 58 C 683.96875 59.15625 683.507812 60.269531 682.6875 61.085938 C 681.871094 61.90625 680.757812 62.367188 679.601562 62.367188 C 678.441406 62.367188 677.332031 61.90625 676.511719 61.085938 C 675.691406 60.269531 675.230469 59.15625 675.230469 58 C 675.230469 56.839844 675.691406 55.730469 676.511719 54.910156 C 677.332031 54.089844 678.441406 53.628906 679.601562 53.628906 C 680.757812 53.628906 681.871094 54.089844 682.6875 54.910156 C 683.507812 55.730469 683.96875 56.839844 683.96875 58 Z M 683.96875 58 "/>
<path style=" stroke:none;fill-rule:evenodd;fill:rgb(93.333333%,46.666667%,20%);fill-opacity:0.12;" d="M 118 407.035156 L 118 402.273438 L 742 402.273438 L 742 407.035156 Z M 118 407.035156 "/>
<g clip-path="url(#clip2)" clip-rule="nonzero">
<path style="fill:none;stroke-width:2.2;stroke-linecap:butt;stroke-linejoin:miter;stroke:rgb(93.333333%,46.666667%,20%);stroke-opacity:1;stroke-dasharray:9,5;stroke-miterlimit:3.25;" d="M 118 404.65625 L 742 404.65625 "/>
</g>
<g style="fill:rgb(93.333333%,46.666667%,20%);fill-opacity:1;">
  <use xlink:href="#glyph0-1" x="659.828" y="397.898273"/>
  <use xlink:href="#glyph0-2" x="669.932833" y="397.898273"/>
  <use xlink:href="#glyph0-3" x="680.797667" y="397.898273"/>
  <use xlink:href="#glyph0-4" x="691.6625" y="397.898273"/>
  <use xlink:href="#glyph0-5" x="701.463333" y="397.898273"/>
  <use xlink:href="#glyph0-2" x="712.328167" y="397.898273"/>
  <use xlink:href="#glyph0-6" x="723.193" y="397.898273"/>
</g>
<path style=" stroke:none;fill-rule:evenodd;fill:rgb(93.333333%,46.666667%,20%);fill-opacity:0.18;" d="M 180.398438 113.300781 L 305.199219 126.558594 L 430 86.101562 L 554.800781 44.964844 L 679.601562 83.382812 L 679.601562 113.300781 L 554.800781 81.003906 L 430 107.179688 L 305.199219 153.078125 L 180.398438 141.175781 Z M 180.398438 113.300781 "/>
<path style="fill:none;stroke-width:2.8;stroke-linecap:square;stroke-linejoin:miter;stroke:rgb(93.333333%,46.666667%,20%);stroke-opacity:1;stroke-miterlimit:3.25;" d="M 180.398438 127.238281 L 305.199219 139.816406 L 430 96.640625 L 554.800781 62.984375 L 679.601562 98.339844 "/>
<path style=" stroke:none;fill-rule:evenodd;fill:rgb(93.333333%,46.666667%,20%);fill-opacity:1;" d="M 184.769531 127.238281 C 184.769531 128.398438 184.308594 129.507812 183.488281 130.328125 C 182.667969 131.144531 181.558594 131.605469 180.398438 131.605469 C 179.242188 131.605469 178.128906 131.144531 177.3125 130.328125 C 176.492188 129.507812 176.03125 128.398438 176.03125 127.238281 C 176.03125 126.078125 176.492188 124.96875 177.3125 124.148438 C 178.128906 123.332031 179.242188 122.871094 180.398438 122.871094 C 181.558594 122.871094 182.667969 123.332031 183.488281 124.148438 C 184.308594 124.96875 184.769531 126.078125 184.769531 127.238281 Z M 184.769531 127.238281 "/>
<path style=" stroke:none;fill-rule:evenodd;fill:rgb(93.333333%,46.666667%,20%);fill-opacity:1;" d="M 309.566406 139.816406 C 309.566406 140.976562 309.109375 142.085938 308.289062 142.90625 C 307.46875 143.726562 306.359375 144.183594 305.199219 144.183594 C 304.042969 144.183594 302.929688 143.726562 302.113281 142.90625 C 301.292969 142.085938 300.832031 140.976562 300.832031 139.816406 C 300.832031 138.660156 301.292969 137.546875 302.113281 136.730469 C 302.929688 135.910156 304.042969 135.449219 305.199219 135.449219 C 306.359375 135.449219 307.46875 135.910156 308.289062 136.730469 C 309.109375 137.546875 309.566406 138.660156 309.566406 139.816406 Z M 309.566406 139.816406 "/>
<path style=" stroke:none;fill-rule:evenodd;fill:rgb(93.333333%,46.666667%,20%);fill-opacity:1;" d="M 434.367188 96.640625 C 434.367188 97.800781 433.90625 98.910156 433.089844 99.730469 C 432.269531 100.550781 431.160156 101.007812 430 101.007812 C 428.839844 101.007812 427.730469 100.550781 426.910156 99.730469 C 426.09375 98.910156 425.632812 97.800781 425.632812 96.640625 C 425.632812 95.484375 426.09375 94.371094 426.910156 93.550781 C 427.730469 92.734375 428.839844 92.273438 430 92.273438 C 431.160156 92.273438 432.269531 92.734375 433.089844 93.550781 C 433.90625 94.371094 434.367188 95.484375 434.367188 96.640625 Z M 434.367188 96.640625 "/>
<path style=" stroke:none;fill-rule:evenodd;fill:rgb(93.333333%,46.666667%,20%);fill-opacity:1;" d="M 559.167969 62.984375 C 559.167969 64.140625 558.707031 65.253906 557.886719 66.074219 C 557.070312 66.890625 555.957031 67.351562 554.800781 67.351562 C 553.640625 67.351562 552.53125 66.890625 551.710938 66.074219 C 550.890625 65.253906 550.433594 64.140625 550.433594 62.984375 C 550.433594 61.824219 550.890625 60.714844 551.710938 59.894531 C 552.53125 59.074219 553.640625 58.617188 554.800781 58.617188 C 555.957031 58.617188 557.070312 59.074219 557.886719 59.894531 C 558.707031 60.714844 559.167969 61.824219 559.167969 62.984375 Z M 559.167969 62.984375 "/>
<path style=" stroke:none;fill-rule:evenodd;fill:rgb(93.333333%,46.666667%,20%);fill-opacity:1;" d="M 683.96875 98.339844 C 683.96875 99.5 683.507812 100.609375 682.6875 101.429688 C 681.871094 102.25 680.757812 102.707031 679.601562 102.707031 C 678.441406 102.707031 677.332031 102.25 676.511719 101.429688 C 675.691406 100.609375 675.230469 99.5 675.230469 98.339844 C 675.230469 97.183594 675.691406 96.070312 676.511719 95.253906 C 677.332031 94.433594 678.441406 93.972656 679.601562 93.972656 C 680.757812 93.972656 681.871094 94.433594 682.6875 95.253906 C 683.507812 96.070312 683.96875 97.183594 683.96875 98.339844 Z M 683.96875 98.339844 "/>
<path style="fill:none;stroke-width:1.5;stroke-linecap:square;stroke-linejoin:miter;stroke:rgb(0%,0%,0%);stroke-opacity:1;stroke-miterlimit:3.25;" d="M 742 436 L 118 436 "/>
<path style="fill:none;stroke-width:1.5;stroke-linecap:square;stroke-linejoin:miter;stroke:rgb(0%,0%,0%);stroke-opacity:1;stroke-miterlimit:3.25;" d="M 118 436 L 118 16 "/>
<path style="fill:none;stroke-width:1.5;stroke-linecap:square;stroke-linejoin:miter;stroke:rgb(0%,0%,0%);stroke-opacity:1;stroke-miterlimit:3.25;" d="M 118 16 L 742 16 "/>
<path style="fill:none;stroke-width:1.5;stroke-linecap:square;stroke-linejoin:miter;stroke:rgb(0%,0%,0%);stroke-opacity:1;stroke-miterlimit:3.25;" d="M 742 16 L 742 436 "/>
<path style="fill:none;stroke-width:1.5;stroke-linecap:butt;stroke-linejoin:miter;stroke:rgb(0%,0%,0%);stroke-opacity:1;stroke-miterlimit:3.25;" d="M 180.398438 436 L 180.398438 430.121094 "/>
<g style="fill:rgb(0%,0%,0%);fill-opacity:1;">
  <use xlink:href="#glyph1-1" x="138.215" y="464.256051"/>
  <use xlink:href="#glyph1-2" x="152.889" y="464.256051"/>
  <use xlink:href="#glyph1-3" x="165.121" y="464.256051"/>
  <use xlink:href="#glyph1-4" x="176.121" y="464.256051"/>
  <use xlink:href="#glyph1-5" x="188.353" y="464.256051"/>
  <use xlink:href="#glyph1-6" x="193.237" y="464.256051"/>
  <use xlink:href="#glyph1-7" x="198.121" y="464.256051"/>
  <use xlink:href="#glyph1-4" x="210.353" y="464.256051"/>
</g>
<path style="fill:none;stroke-width:1.5;stroke-linecap:butt;stroke-linejoin:miter;stroke:rgb(0%,0%,0%);stroke-opacity:1;stroke-miterlimit:3.25;" d="M 305.199219 436 L 305.199219 430.121094 "/>
<g style="fill:rgb(0%,0%,0%);fill-opacity:1;">
  <use xlink:href="#glyph1-8" x="289.921" y="464.256051"/>
  <use xlink:href="#glyph1-9" x="304.595" y="464.256051"/>
</g>
<path style="fill:none;stroke-width:1.5;stroke-linecap:butt;stroke-linejoin:miter;stroke:rgb(0%,0%,0%);stroke-opacity:1;stroke-miterlimit:3.25;" d="M 430 436 L 430 430.121094 "/>
<g style="fill:rgb(0%,0%,0%);fill-opacity:1;">
  <use xlink:href="#glyph1-10" x="410.442" y="464.256051"/>
  <use xlink:href="#glyph1-6" x="426.326" y="464.256051"/>
  <use xlink:href="#glyph1-7" x="431.21" y="464.256051"/>
  <use xlink:href="#glyph1-11" x="443.442" y="464.256051"/>
</g>
<path style="fill:none;stroke-width:1.5;stroke-linecap:butt;stroke-linejoin:miter;stroke:rgb(0%,0%,0%);stroke-opacity:1;stroke-miterlimit:3.25;" d="M 554.800781 436 L 554.800781 430.121094 "/>
<g style="fill:rgb(0%,0%,0%);fill-opacity:1;">
  <use xlink:href="#glyph1-10" x="532.184" y="455.038"/>
  <use xlink:href="#glyph1-6" x="548.068" y="455.038"/>
  <use xlink:href="#glyph1-7" x="552.952" y="455.038"/>
  <use xlink:href="#glyph1-11" x="565.184" y="455.038"/>
</g>
<g style="fill:rgb(0%,0%,0%);fill-opacity:1;">
  <use xlink:href="#glyph1-12" x="571.3" y="455.038"/>
</g>
<g style="fill:rgb(0%,0%,0%);fill-opacity:1;">
  <use xlink:href="#glyph2-1" x="514.253949" y="479.038395"/>
</g>
<g style="fill:rgb(0%,0%,0%);fill-opacity:1;">
  <use xlink:href="#glyph1-13" x="537.288503" y="479.038395"/>
</g>
<g style="fill:rgb(0%,0%,0%);fill-opacity:1;">
  <use xlink:href="#glyph1-14" x="556.252503" y="479.038395"/>
  <use xlink:href="#glyph1-15" x="568.484503" y="479.038395"/>
  <use xlink:href="#glyph1-16" x="574.600503" y="479.038395"/>
  <use xlink:href="#glyph1-17" x="586.832503" y="479.038395"/>
</g>
<path style="fill:none;stroke-width:1.5;stroke-linecap:butt;stroke-linejoin:miter;stroke:rgb(0%,0%,0%);stroke-opacity:1;stroke-miterlimit:3.25;" d="M 679.601562 436 L 679.601562 430.121094 "/>
<g style="fill:rgb(0%,0%,0%);fill-opacity:1;">
  <use xlink:href="#glyph1-18" x="630.694" y="464.256051"/>
  <use xlink:href="#glyph1-4" x="646.382444" y="464.256051"/>
  <use xlink:href="#glyph1-5" x="658.638889" y="464.256051"/>
  <use xlink:href="#glyph1-2" x="663.547333" y="464.256051"/>
  <use xlink:href="#glyph1-11" x="675.803778" y="464.256051"/>
  <use xlink:href="#glyph1-6" x="681.944222" y="464.256051"/>
  <use xlink:href="#glyph1-19" x="686.852667" y="464.256051"/>
  <use xlink:href="#glyph1-7" x="699.109111" y="464.256051"/>
  <use xlink:href="#glyph1-2" x="711.365556" y="464.256051"/>
  <use xlink:href="#glyph1-5" x="723.622" y="464.256051"/>
</g>
<path style="fill:none;stroke-width:1.5;stroke-linecap:butt;stroke-linejoin:miter;stroke:rgb(0%,46.666667%,73.333333%);stroke-opacity:1;stroke-miterlimit:3.25;" d="M 118 359.890625 L 126.734375 359.890625 "/>
<g style="fill:rgb(0%,0%,0%);fill-opacity:1;">
  <use xlink:href="#glyph1-20" x="76.14982" y="369.395523"/>
  <use xlink:href="#glyph1-14" x="88.38182" y="369.395523"/>
</g>
<g style="fill:rgb(0%,0%,0%);fill-opacity:1;">
  <use xlink:href="#glyph3-1" x="100.61382" y="360.173123"/>
</g>
<g style="fill:rgb(0%,0%,0%);fill-opacity:1;">
  <use xlink:href="#glyph3-2" x="105.81528" y="360.173123"/>
</g>
<path style="fill:none;stroke-width:1.5;stroke-linecap:butt;stroke-linejoin:miter;stroke:rgb(0%,46.666667%,73.333333%);stroke-opacity:1;stroke-miterlimit:3.25;" d="M 118 264.625 L 126.734375 264.625 "/>
<g style="fill:rgb(0%,0%,0%);fill-opacity:1;">
  <use xlink:href="#glyph1-20" x="81.35128" y="274.128317"/>
  <use xlink:href="#glyph1-14" x="93.58328" y="274.128317"/>
</g>
<g style="fill:rgb(0%,0%,0%);fill-opacity:1;">
  <use xlink:href="#glyph3-3" x="105.81528" y="264.905917"/>
</g>
<path style="fill:none;stroke-width:1.5;stroke-linecap:butt;stroke-linejoin:miter;stroke:rgb(0%,46.666667%,73.333333%);stroke-opacity:1;stroke-miterlimit:3.25;" d="M 118 169.355469 L 126.734375 169.355469 "/>
<g style="fill:rgb(0%,0%,0%);fill-opacity:1;">
  <use xlink:href="#glyph1-20" x="81.35128" y="178.86111"/>
  <use xlink:href="#glyph1-14" x="93.58328" y="178.86111"/>
</g>
<g style="fill:rgb(0%,0%,0%);fill-opacity:1;">
  <use xlink:href="#glyph3-2" x="105.81528" y="169.63871"/>
</g>
<path style="fill:none;stroke-width:1.5;stroke-linecap:butt;stroke-linejoin:miter;stroke:rgb(0%,46.666667%,73.333333%);stroke-opacity:1;stroke-miterlimit:3.25;" d="M 118 74.089844 L 126.734375 74.089844 "/>
<g style="fill:rgb(0%,0%,0%);fill-opacity:1;">
  <use xlink:href="#glyph1-20" x="81.35128" y="83.593904"/>
  <use xlink:href="#glyph1-14" x="93.58328" y="83.593904"/>
</g>
<g style="fill:rgb(0%,0%,0%);fill-opacity:1;">
  <use xlink:href="#glyph3-4" x="105.81528" y="74.371504"/>
</g>
<path style="fill:none;stroke-width:1.5;stroke-linecap:butt;stroke-linejoin:miter;stroke:rgb(0%,46.666667%,73.333333%);stroke-opacity:1;stroke-miterlimit:3.25;" d="M 118 426.480469 L 122.367188 426.480469 "/>
<path style="fill:none;stroke-width:1.5;stroke-linecap:butt;stroke-linejoin:miter;stroke:rgb(0%,46.666667%,73.333333%);stroke-opacity:1;stroke-miterlimit:3.25;" d="M 118 409.703125 L 122.367188 409.703125 "/>
<path style="fill:none;stroke-width:1.5;stroke-linecap:butt;stroke-linejoin:miter;stroke:rgb(0%,46.666667%,73.333333%);stroke-opacity:1;stroke-miterlimit:3.25;" d="M 118 397.800781 L 122.367188 397.800781 "/>
<path style="fill:none;stroke-width:1.5;stroke-linecap:butt;stroke-linejoin:miter;stroke:rgb(0%,46.666667%,73.333333%);stroke-opacity:1;stroke-miterlimit:3.25;" d="M 118 388.570312 L 122.367188 388.570312 "/>
<path style="fill:none;stroke-width:1.5;stroke-linecap:butt;stroke-linejoin:miter;stroke:rgb(0%,46.666667%,73.333333%);stroke-opacity:1;stroke-miterlimit:3.25;" d="M 118 381.027344 L 122.367188 381.027344 "/>
<path style="fill:none;stroke-width:1.5;stroke-linecap:butt;stroke-linejoin:miter;stroke:rgb(0%,46.666667%,73.333333%);stroke-opacity:1;stroke-miterlimit:3.25;" d="M 118 374.648438 L 122.367188 374.648438 "/>
<path style="fill:none;stroke-width:1.5;stroke-linecap:butt;stroke-linejoin:miter;stroke:rgb(0%,46.666667%,73.333333%);stroke-opacity:1;stroke-miterlimit:3.25;" d="M 118 369.125 L 122.367188 369.125 "/>
<path style="fill:none;stroke-width:1.5;stroke-linecap:butt;stroke-linejoin:miter;stroke:rgb(0%,46.666667%,73.333333%);stroke-opacity:1;stroke-miterlimit:3.25;" d="M 118 364.25 L 122.367188 364.25 "/>
<path style="fill:none;stroke-width:1.5;stroke-linecap:butt;stroke-linejoin:miter;stroke:rgb(0%,46.666667%,73.333333%);stroke-opacity:1;stroke-miterlimit:3.25;" d="M 118 331.214844 L 122.367188 331.214844 "/>
<path style="fill:none;stroke-width:1.5;stroke-linecap:butt;stroke-linejoin:miter;stroke:rgb(0%,46.666667%,73.333333%);stroke-opacity:1;stroke-miterlimit:3.25;" d="M 118 314.4375 L 122.367188 314.4375 "/>
<path style="fill:none;stroke-width:1.5;stroke-linecap:butt;stroke-linejoin:miter;stroke:rgb(0%,46.666667%,73.333333%);stroke-opacity:1;stroke-miterlimit:3.25;" d="M 118 302.535156 L 122.367188 302.535156 "/>
<path style="fill:none;stroke-width:1.5;stroke-linecap:butt;stroke-linejoin:miter;stroke:rgb(0%,46.666667%,73.333333%);stroke-opacity:1;stroke-miterlimit:3.25;" d="M 118 293.300781 L 122.367188 293.300781 "/>
<path style="fill:none;stroke-width:1.5;stroke-linecap:butt;stroke-linejoin:miter;stroke:rgb(0%,46.666667%,73.333333%);stroke-opacity:1;stroke-miterlimit:3.25;" d="M 118 285.757812 L 122.367188 285.757812 "/>
<path style="fill:none;stroke-width:1.5;stroke-linecap:butt;stroke-linejoin:miter;stroke:rgb(0%,46.666667%,73.333333%);stroke-opacity:1;stroke-miterlimit:3.25;" d="M 118 279.382812 L 122.367188 279.382812 "/>
<path style="fill:none;stroke-width:1.5;stroke-linecap:butt;stroke-linejoin:miter;stroke:rgb(0%,46.666667%,73.333333%);stroke-opacity:1;stroke-miterlimit:3.25;" d="M 118 273.855469 L 122.367188 273.855469 "/>
<path style="fill:none;stroke-width:1.5;stroke-linecap:butt;stroke-linejoin:miter;stroke:rgb(0%,46.666667%,73.333333%);stroke-opacity:1;stroke-miterlimit:3.25;" d="M 118 268.984375 L 122.367188 268.984375 "/>
<path style="fill:none;stroke-width:1.5;stroke-linecap:butt;stroke-linejoin:miter;stroke:rgb(0%,46.666667%,73.333333%);stroke-opacity:1;stroke-miterlimit:3.25;" d="M 118 235.945312 L 122.367188 235.945312 "/>
<path style="fill:none;stroke-width:1.5;stroke-linecap:butt;stroke-linejoin:miter;stroke:rgb(0%,46.666667%,73.333333%);stroke-opacity:1;stroke-miterlimit:3.25;" d="M 118 219.171875 L 122.367188 219.171875 "/>
<path style="fill:none;stroke-width:1.5;stroke-linecap:butt;stroke-linejoin:miter;stroke:rgb(0%,46.666667%,73.333333%);stroke-opacity:1;stroke-miterlimit:3.25;" d="M 118 207.269531 L 122.367188 207.269531 "/>
<path style="fill:none;stroke-width:1.5;stroke-linecap:butt;stroke-linejoin:miter;stroke:rgb(0%,46.666667%,73.333333%);stroke-opacity:1;stroke-miterlimit:3.25;" d="M 118 198.035156 L 122.367188 198.035156 "/>
<path style="fill:none;stroke-width:1.5;stroke-linecap:butt;stroke-linejoin:miter;stroke:rgb(0%,46.666667%,73.333333%);stroke-opacity:1;stroke-miterlimit:3.25;" d="M 118 190.492188 L 122.367188 190.492188 "/>
<path style="fill:none;stroke-width:1.5;stroke-linecap:butt;stroke-linejoin:miter;stroke:rgb(0%,46.666667%,73.333333%);stroke-opacity:1;stroke-miterlimit:3.25;" d="M 118 184.113281 L 122.367188 184.113281 "/>
<path style="fill:none;stroke-width:1.5;stroke-linecap:butt;stroke-linejoin:miter;stroke:rgb(0%,46.666667%,73.333333%);stroke-opacity:1;stroke-miterlimit:3.25;" d="M 118 178.589844 L 122.367188 178.589844 "/>
<path style="fill:none;stroke-width:1.5;stroke-linecap:butt;stroke-linejoin:miter;stroke:rgb(0%,46.666667%,73.333333%);stroke-opacity:1;stroke-miterlimit:3.25;" d="M 118 173.714844 L 122.367188 173.714844 "/>
<path style="fill:none;stroke-width:1.5;stroke-linecap:butt;stroke-linejoin:miter;stroke:rgb(0%,46.666667%,73.333333%);stroke-opacity:1;stroke-miterlimit:3.25;" d="M 118 140.679688 L 122.367188 140.679688 "/>
<path style="fill:none;stroke-width:1.5;stroke-linecap:butt;stroke-linejoin:miter;stroke:rgb(0%,46.666667%,73.333333%);stroke-opacity:1;stroke-miterlimit:3.25;" d="M 118 123.902344 L 122.367188 123.902344 "/>
<path style="fill:none;stroke-width:1.5;stroke-linecap:butt;stroke-linejoin:miter;stroke:rgb(0%,46.666667%,73.333333%);stroke-opacity:1;stroke-miterlimit:3.25;" d="M 118 112 L 122.367188 112 "/>
<path style="fill:none;stroke-width:1.5;stroke-linecap:butt;stroke-linejoin:miter;stroke:rgb(0%,46.666667%,73.333333%);stroke-opacity:1;stroke-miterlimit:3.25;" d="M 118 102.769531 L 122.367188 102.769531 "/>
<path style="fill:none;stroke-width:1.5;stroke-linecap:butt;stroke-linejoin:miter;stroke:rgb(0%,46.666667%,73.333333%);stroke-opacity:1;stroke-miterlimit:3.25;" d="M 118 95.226562 L 122.367188 95.226562 "/>
<path style="fill:none;stroke-width:1.5;stroke-linecap:butt;stroke-linejoin:miter;stroke:rgb(0%,46.666667%,73.333333%);stroke-opacity:1;stroke-miterlimit:3.25;" d="M 118 88.847656 L 122.367188 88.847656 "/>
<path style="fill:none;stroke-width:1.5;stroke-linecap:butt;stroke-linejoin:miter;stroke:rgb(0%,46.666667%,73.333333%);stroke-opacity:1;stroke-miterlimit:3.25;" d="M 118 83.320312 L 122.367188 83.320312 "/>
<path style="fill:none;stroke-width:1.5;stroke-linecap:butt;stroke-linejoin:miter;stroke:rgb(0%,46.666667%,73.333333%);stroke-opacity:1;stroke-miterlimit:3.25;" d="M 118 78.449219 L 122.367188 78.449219 "/>
<path style="fill:none;stroke-width:1.5;stroke-linecap:butt;stroke-linejoin:miter;stroke:rgb(0%,46.666667%,73.333333%);stroke-opacity:1;stroke-miterlimit:3.25;" d="M 118 45.410156 L 122.367188 45.410156 "/>
<path style="fill:none;stroke-width:1.5;stroke-linecap:butt;stroke-linejoin:miter;stroke:rgb(0%,46.666667%,73.333333%);stroke-opacity:1;stroke-miterlimit:3.25;" d="M 118 28.636719 L 122.367188 28.636719 "/>
<path style="fill:none;stroke-width:1.5;stroke-linecap:butt;stroke-linejoin:miter;stroke:rgb(0%,46.666667%,73.333333%);stroke-opacity:1;stroke-miterlimit:3.25;" d="M 118 16.734375 L 122.367188 16.734375 "/>
<path style="fill:none;stroke-width:1.5;stroke-linecap:butt;stroke-linejoin:miter;stroke:rgb(0%,0%,0%);stroke-opacity:1;stroke-miterlimit:3.25;" d="M 180.398438 16 L 180.398438 21.878906 "/>
<path style="fill:none;stroke-width:1.5;stroke-linecap:butt;stroke-linejoin:miter;stroke:rgb(0%,0%,0%);stroke-opacity:1;stroke-miterlimit:3.25;" d="M 305.199219 16 L 305.199219 21.878906 "/>
<path style="fill:none;stroke-width:1.5;stroke-linecap:butt;stroke-linejoin:miter;stroke:rgb(0%,0%,0%);stroke-opacity:1;stroke-miterlimit:3.25;" d="M 430 16 L 430 21.878906 "/>
<path style="fill:none;stroke-width:1.5;stroke-linecap:butt;stroke-linejoin:miter;stroke:rgb(0%,0%,0%);stroke-opacity:1;stroke-miterlimit:3.25;" d="M 554.800781 16 L 554.800781 21.878906 "/>
<path style="fill:none;stroke-width:1.5;stroke-linecap:butt;stroke-linejoin:miter;stroke:rgb(0%,0%,0%);stroke-opacity:1;stroke-miterlimit:3.25;" d="M 679.601562 16 L 679.601562 21.878906 "/>
<path style="fill:none;stroke-width:1.5;stroke-linecap:butt;stroke-linejoin:miter;stroke:rgb(93.333333%,46.666667%,20%);stroke-opacity:1;stroke-miterlimit:3.25;" d="M 742 416.554688 L 733.265625 416.554688 "/>
<g style="fill:rgb(0%,0%,0%);fill-opacity:1;">
  <use xlink:href="#glyph1-14" x="745" y="426.057686"/>
  <use xlink:href="#glyph1-15" x="757.232" y="426.057686"/>
  <use xlink:href="#glyph1-14" x="763.348" y="426.057686"/>
  <use xlink:href="#glyph1-14" x="775.58" y="426.057686"/>
</g>
<path style="fill:none;stroke-width:1.5;stroke-linecap:butt;stroke-linejoin:miter;stroke:rgb(93.333333%,46.666667%,20%);stroke-opacity:1;stroke-miterlimit:3.25;" d="M 742 331.5625 L 733.265625 331.5625 "/>
<g style="fill:rgb(0%,0%,0%);fill-opacity:1;">
  <use xlink:href="#glyph1-14" x="745" y="341.064971"/>
  <use xlink:href="#glyph1-15" x="757.232" y="341.064971"/>
  <use xlink:href="#glyph1-14" x="763.348" y="341.064971"/>
  <use xlink:href="#glyph1-21" x="775.58" y="341.064971"/>
</g>
<path style="fill:none;stroke-width:1.5;stroke-linecap:butt;stroke-linejoin:miter;stroke:rgb(93.333333%,46.666667%,20%);stroke-opacity:1;stroke-miterlimit:3.25;" d="M 742 246.566406 L 733.265625 246.566406 "/>
<g style="fill:rgb(0%,0%,0%);fill-opacity:1;">
  <use xlink:href="#glyph1-14" x="745" y="256.072256"/>
  <use xlink:href="#glyph1-15" x="757.232" y="256.072256"/>
  <use xlink:href="#glyph1-14" x="763.348" y="256.072256"/>
  <use xlink:href="#glyph1-17" x="775.58" y="256.072256"/>
</g>
<path style="fill:none;stroke-width:1.5;stroke-linecap:butt;stroke-linejoin:miter;stroke:rgb(93.333333%,46.666667%,20%);stroke-opacity:1;stroke-miterlimit:3.25;" d="M 742 161.574219 L 733.265625 161.574219 "/>
<g style="fill:rgb(0%,0%,0%);fill-opacity:1;">
  <use xlink:href="#glyph1-14" x="745" y="171.079541"/>
  <use xlink:href="#glyph1-15" x="757.232" y="171.079541"/>
  <use xlink:href="#glyph1-14" x="763.348" y="171.079541"/>
  <use xlink:href="#glyph1-22" x="775.58" y="171.079541"/>
</g>
<path style="fill:none;stroke-width:1.5;stroke-linecap:butt;stroke-linejoin:miter;stroke:rgb(93.333333%,46.666667%,20%);stroke-opacity:1;stroke-miterlimit:3.25;" d="M 742 76.582031 L 733.265625 76.582031 "/>
<g style="fill:rgb(0%,0%,0%);fill-opacity:1;">
  <use xlink:href="#glyph1-14" x="745" y="86.086826"/>
  <use xlink:href="#glyph1-15" x="757.232" y="86.086826"/>
  <use xlink:href="#glyph1-20" x="763.348" y="86.086826"/>
  <use xlink:href="#glyph1-14" x="775.58" y="86.086826"/>
</g>
<path style="fill:none;stroke-width:1.5;stroke-linecap:butt;stroke-linejoin:miter;stroke:rgb(93.333333%,46.666667%,20%);stroke-opacity:1;stroke-miterlimit:3.25;" d="M 742 433.550781 L 737.632812 433.550781 "/>
<path style="fill:none;stroke-width:1.5;stroke-linecap:butt;stroke-linejoin:miter;stroke:rgb(93.333333%,46.666667%,20%);stroke-opacity:1;stroke-miterlimit:3.25;" d="M 742 399.554688 L 737.632812 399.554688 "/>
<path style="fill:none;stroke-width:1.5;stroke-linecap:butt;stroke-linejoin:miter;stroke:rgb(93.333333%,46.666667%,20%);stroke-opacity:1;stroke-miterlimit:3.25;" d="M 742 382.554688 L 737.632812 382.554688 "/>
<path style="fill:none;stroke-width:1.5;stroke-linecap:butt;stroke-linejoin:miter;stroke:rgb(93.333333%,46.666667%,20%);stroke-opacity:1;stroke-miterlimit:3.25;" d="M 742 365.558594 L 737.632812 365.558594 "/>
<path style="fill:none;stroke-width:1.5;stroke-linecap:butt;stroke-linejoin:miter;stroke:rgb(93.333333%,46.666667%,20%);stroke-opacity:1;stroke-miterlimit:3.25;" d="M 742 348.558594 L 737.632812 348.558594 "/>
<path style="fill:none;stroke-width:1.5;stroke-linecap:butt;stroke-linejoin:miter;stroke:rgb(93.333333%,46.666667%,20%);stroke-opacity:1;stroke-miterlimit:3.25;" d="M 742 314.5625 L 737.632812 314.5625 "/>
<path style="fill:none;stroke-width:1.5;stroke-linecap:butt;stroke-linejoin:miter;stroke:rgb(93.333333%,46.666667%,20%);stroke-opacity:1;stroke-miterlimit:3.25;" d="M 742 297.5625 L 737.632812 297.5625 "/>
<path style="fill:none;stroke-width:1.5;stroke-linecap:butt;stroke-linejoin:miter;stroke:rgb(93.333333%,46.666667%,20%);stroke-opacity:1;stroke-miterlimit:3.25;" d="M 742 280.566406 L 737.632812 280.566406 "/>
<path style="fill:none;stroke-width:1.5;stroke-linecap:butt;stroke-linejoin:miter;stroke:rgb(93.333333%,46.666667%,20%);stroke-opacity:1;stroke-miterlimit:3.25;" d="M 742 263.566406 L 737.632812 263.566406 "/>
<path style="fill:none;stroke-width:1.5;stroke-linecap:butt;stroke-linejoin:miter;stroke:rgb(93.333333%,46.666667%,20%);stroke-opacity:1;stroke-miterlimit:3.25;" d="M 742 229.570312 L 737.632812 229.570312 "/>
<path style="fill:none;stroke-width:1.5;stroke-linecap:butt;stroke-linejoin:miter;stroke:rgb(93.333333%,46.666667%,20%);stroke-opacity:1;stroke-miterlimit:3.25;" d="M 742 212.570312 L 737.632812 212.570312 "/>
<path style="fill:none;stroke-width:1.5;stroke-linecap:butt;stroke-linejoin:miter;stroke:rgb(93.333333%,46.666667%,20%);stroke-opacity:1;stroke-miterlimit:3.25;" d="M 742 195.574219 L 737.632812 195.574219 "/>
<path style="fill:none;stroke-width:1.5;stroke-linecap:butt;stroke-linejoin:miter;stroke:rgb(93.333333%,46.666667%,20%);stroke-opacity:1;stroke-miterlimit:3.25;" d="M 742 178.574219 L 737.632812 178.574219 "/>
<path style="fill:none;stroke-width:1.5;stroke-linecap:butt;stroke-linejoin:miter;stroke:rgb(93.333333%,46.666667%,20%);stroke-opacity:1;stroke-miterlimit:3.25;" d="M 742 144.578125 L 737.632812 144.578125 "/>
<path style="fill:none;stroke-width:1.5;stroke-linecap:butt;stroke-linejoin:miter;stroke:rgb(93.333333%,46.666667%,20%);stroke-opacity:1;stroke-miterlimit:3.25;" d="M 742 127.578125 L 737.632812 127.578125 "/>
<path style="fill:none;stroke-width:1.5;stroke-linecap:butt;stroke-linejoin:miter;stroke:rgb(93.333333%,46.666667%,20%);stroke-opacity:1;stroke-miterlimit:3.25;" d="M 742 110.578125 L 737.632812 110.578125 "/>
<path style="fill:none;stroke-width:1.5;stroke-linecap:butt;stroke-linejoin:miter;stroke:rgb(93.333333%,46.666667%,20%);stroke-opacity:1;stroke-miterlimit:3.25;" d="M 742 93.582031 L 737.632812 93.582031 "/>
<path style="fill:none;stroke-width:1.5;stroke-linecap:butt;stroke-linejoin:miter;stroke:rgb(93.333333%,46.666667%,20%);stroke-opacity:1;stroke-miterlimit:3.25;" d="M 742 59.585938 L 737.632812 59.585938 "/>
<path style="fill:none;stroke-width:1.5;stroke-linecap:butt;stroke-linejoin:miter;stroke:rgb(93.333333%,46.666667%,20%);stroke-opacity:1;stroke-miterlimit:3.25;" d="M 742 42.585938 L 737.632812 42.585938 "/>
<path style="fill:none;stroke-width:1.5;stroke-linecap:butt;stroke-linejoin:miter;stroke:rgb(93.333333%,46.666667%,20%);stroke-opacity:1;stroke-miterlimit:3.25;" d="M 742 25.585938 L 737.632812 25.585938 "/>
<g style="fill:rgb(0%,46.666667%,73.333333%);fill-opacity:1;">
  <use xlink:href="#glyph4-1" x="61.629803" y="253.51"/>
  <use xlink:href="#glyph4-2" x="61.629803" y="231.85"/>
  <use xlink:href="#glyph4-2" x="61.629803" y="215.17"/>
</g>
<g style="fill:rgb(93.333333%,46.666667%,20%);fill-opacity:1;">
  <use xlink:href="#glyph4-3" x="828.25207" y="256.84"/>
  <use xlink:href="#glyph4-4" x="828.25207" y="236.83"/>
  <use xlink:href="#glyph4-3" x="828.25207" y="215.17"/>
</g>
</g>
</svg>
